<?xml version="1.0" encoding="UTF-8" standalone="no"?>
<!DOCTYPE svg PUBLIC "-//W3C//DTD SVG 1.1//EN"
 "http://www.w3.org/Graphics/SVG/1.1/DTD/svg11.dtd">
<!-- Generated by graphviz version 2.38.0 (20140413.2041)
 -->
<!-- Title: inheritance2e68ef998c Pages: 1 -->
<svg width="235pt" height="134pt"
 viewBox="0.00 0.00 234.97 134.00" xmlns="http://www.w3.org/2000/svg" xmlns:xlink="http://www.w3.org/1999/xlink">
<g id="graph0" class="graph" transform="scale(1 1) rotate(0) translate(4 130)">
<title>inheritance2e68ef998c</title>
<polygon fill="white" stroke="none" points="-4,4 -4,-130 230.97,-130 230.97,4 -4,4"/>
<!-- Input -->
<g id="node1" class="node"><title>Input</title>
<g id="a_node1"><a xlink:href="../../api/nexoclom.Input.html#nexoclom.Input" xlink:title="Input" target="_top">
<polygon fill="none" stroke="black" stroke-width="0.5" points="90.3076,-18 36.3076,-18 36.3076,-0 90.3076,-0 90.3076,-18"/>
<text text-anchor="middle" x="63.3076" y="-6" font-family="Vera Sans, DejaVu Sans, Liberation Sans, Arial, Helvetica, sans" font-size="10.00">Input</text>
</a>
</g>
</g>
<!-- LOSResult -->
<g id="node2" class="node"><title>LOSResult</title>
<g id="a_node2"><a xlink:href="../../api/nexoclom.LOSResult.html#nexoclom.LOSResult" xlink:title="LOSResult" target="_top">
<polygon fill="none" stroke="black" stroke-width="0.5" points="227.148,-54 162.437,-54 162.437,-36 227.148,-36 227.148,-54"/>
<text text-anchor="middle" x="194.792" y="-42" font-family="Vera Sans, DejaVu Sans, Liberation Sans, Arial, Helvetica, sans" font-size="10.00">LOSResult</text>
</a>
</g>
</g>
<!-- ModelResult -->
<g id="node3" class="node"><title>ModelResult</title>
<polygon fill="none" stroke="black" stroke-width="0.5" points="98.8899,-54 27.7253,-54 27.7253,-36 98.8899,-36 98.8899,-54"/>
<text text-anchor="middle" x="63.3076" y="-42" font-family="Vera Sans, DejaVu Sans, Liberation Sans, Arial, Helvetica, sans" font-size="10.00">ModelResult</text>
</g>
<!-- ModelResult&#45;&gt;LOSResult -->
<g id="edge1" class="edge"><title>ModelResult&#45;&gt;LOSResult</title>
<path fill="none" stroke="black" stroke-width="0.5" d="M99.0072,-45C117.084,-45 139.177,-45 157.484,-45"/>
<polygon fill="black" stroke="black" stroke-width="0.5" points="157.541,-46.7501 162.541,-45 157.541,-43.2501 157.541,-46.7501"/>
</g>
<!-- Output -->
<g id="node4" class="node"><title>Output</title>
<g id="a_node4"><a xlink:href="../../api/nexoclom.Output.html#nexoclom.Output" xlink:title="Keep track of packets initial and final positions" target="_top">
<polygon fill="none" stroke="black" stroke-width="0.5" points="90.3076,-90 36.3076,-90 36.3076,-72 90.3076,-72 90.3076,-90"/>
<text text-anchor="middle" x="63.3076" y="-78" font-family="Vera Sans, DejaVu Sans, Liberation Sans, Arial, Helvetica, sans" font-size="10.00">Output</text>
</a>
</g>
</g>
<!-- UnsupportedPythonError -->
<g id="node5" class="node"><title>UnsupportedPythonError</title>
<g id="a_node5"><a xlink:href="../../api/nexoclom.UnsupportedPythonError.html#nexoclom.UnsupportedPythonError" xlink:title="UnsupportedPythonError" target="_top">
<polygon fill="none" stroke="black" stroke-width="0.5" points="126.423,-126 0.1918,-126 0.1918,-108 126.423,-108 126.423,-126"/>
<text text-anchor="middle" x="63.3076" y="-114" font-family="Vera Sans, DejaVu Sans, Liberation Sans, Arial, Helvetica, sans" font-size="10.00">UnsupportedPythonError</text>
</a>
</g>
</g>
</g>
</svg>
