<!DOCTYPE svg PUBLIC "-//W3C//DTD SVG 1.1//EN" "http://www.w3.org/Graphics/SVG/1.1/DTD/svg11.dtd">
<svg xmlns="http://www.w3.org/2000/svg" xmlns:xlink="http://www.w3.org/1999/xlink" version="1.1" color="black" width="816.00px" height="1056.00px">
<style type="text/css">
.fill {fill: currentColor}
.stroke {stroke: currentColor; fill: none}
text{white-space: pre}
</style>
<title>/tera/gill/PycharmProjects/MusicRaft/share/abc/new.abc page 1</title>
<!-- Creator: abcm2ps-8.14.2 -->
<!-- CreationDate: Jun 12, 2019 14:06 -->
<!-- CommandLine: -k 640 -v -A -O /tera/gill/PycharmProjects/MusicRaft/share/abc/new_page_.svg /tera/gill/PycharmProjects/MusicRaft/share/abc/new.abc -->
<g stroke-width="0.70" transform="scale(0.667)">
<defs>
<g id="rdots" class="fill">
	<circle cx="0" cy="-9" r="1.2"/>
	<circle cx="0" cy="-15" r="1.2"/>
</g>
</defs>
<use x="159.80" y="137.67" xlink:href="#rdots"/>
<path class="stroke" stroke-width="1" d="M155.80 137.67v-24.00"/>
<path class="stroke" stroke-width="3" d="M151.30 137.67v-24.00"/>
<abc type="B" row="12" col="0" x="142.80" y="109.67" width="28.00" height="32"/>
<path class="stroke" stroke-width="1" d="M378.60 137.67v-24.00"/>
<abc type="B" row="12" col="7" x="368.60" y="109.67" width="20.00" height="32"/>
<path class="stroke" stroke-width="1" d="M698.70 137.67v-24.00"/>
<abc type="B" row="12" col="16" x="688.70" y="109.67" width="20.00" height="32"/>
<path class="stroke" stroke-width="1" d="M1123.20 137.67v-24.00"/>
<abc type="B" row="12" col="26" x="1113.20" y="109.67" width="20.00" height="32"/>
<path d="m100.80 137.67  h1022.40  M100.80 131.67  h1022.40  M100.80 125.67  h1022.40  M100.80 119.67  h1022.40  M100.80 113.67  h1022.40  " class="stroke"/>
<defs>
<path id="utclef" class="fill" d="m-50 -90  c-72 -41 -72 -158 52 -188  150 -10 220 188 90 256  -114 52 -275 0 -293 -136  -15 -181 93 -229 220 -334  88 -87 79 -133 62 -210  -51 33 -94 105 -89 186  17 267 36 374 49 574  6 96 -19 134 -77 135  -80 1 -126 -93 -61 -133  85 -41 133 101 31 105  23 17 92 37 90 -92  -10 -223 -39 -342 -50 -617  0 -90 0 -162 96 -232  56 72 63 230 22 289  -74 106 -257 168 -255 316  9 153 148 185 252 133  86 -65 29 -192 -80 -176  -71 12 -105 67 -59 124"/>
<use id="tclef" transform="translate(0,6) scale(0.045)" xlink:href="#utclef"/>
</defs>
<use x="112.80" y="131.67" xlink:href="#tclef"/>
<abc type="c" row="12" col="0" x="98.80" y="101.67" width="28.00" height="46"/>
<defs>
<path id="csig" class="fill" d="  m6 -5.3  c0.9 0 2.3 0.7 2.4 2.2  -1.2 -2 -3.6 0.1 -1.6 1.7  2 1 3.8 -3.5 -0.8 -4.7  -2 -0.4 -6.4 1.3 -5.8 7  0.4 6.4 7.9 6.8 9.1 0.7  -2.3 5.6 -6.7 5.1 -6.8 0  -0.5 -4.4 0.7 -7.5 3.5 -6.9"/>
</defs>
<use x="126.30" y="125.67" xlink:href="#csig"/>
<abc type="M" row="12" col="0" x="122.80" y="109.67" width="24.00" height="32"/>
<defs>
<path id="hl" class="stroke" d="m-6 0h12"/>
</defs>
<use x="188.70" y="143.67" xlink:href="#hl"/>
<defs>
<path id="Hd" class="fill" d="m3 -1.6  c-1 -1.8 -7 1.4 -6 3.2  1 1.8 7 -1.4 6 -3.2  m0.5 -0.3  c2 3.8 -5 7.6 -7 3.8  -2 -3.8 5 -7.6 7 -3.8"/>
</defs>
<use x="188.70" y="143.67" xlink:href="#Hd"/>
<path d="M192.20 143.67v-21.00" class="stroke"/>
<abc type="N" row="12" col="3" x="181.70" y="118.67" width="14.00" height="31"/>
<use x="300.40" y="140.67" xlink:href="#Hd"/>
<path d="M303.90 140.67v-21.00" class="stroke"/>
<abc type="N" row="12" col="5" x="293.40" y="115.67" width="14.00" height="31"/>
<defs>
<ellipse id="hd" rx="4.1" ry="2.9" transform="rotate(-20)" class="fill"/>
</defs>
<use x="406.60" y="137.67" xlink:href="#hd"/>
<path d="M410.10 137.67v-21.00" class="stroke"/>
<abc type="N" row="12" col="8" x="400.10" y="112.67" width="13.00" height="31"/>
<use x="485.50" y="134.67" xlink:href="#hd"/>
<path d="M489.00 134.67v-21.00" class="stroke"/>
<abc type="N" row="12" col="10" x="479.00" y="109.67" width="13.00" height="31"/>
<use x="564.50" y="131.67" xlink:href="#hd"/>
<path d="M568.00 131.67v-21.00" class="stroke"/>
<abc type="N" row="12" col="12" x="558.00" y="106.67" width="13.00" height="31"/>
<use x="643.40" y="128.67" xlink:href="#hd"/>
<path d="M646.90 128.67v-21.00" class="stroke"/>
<abc type="N" row="12" col="14" x="636.90" y="103.67" width="13.00" height="31"/>
<abc type="b" row="12" col="17" x="720.10" y="144.67" width="6.00" height="6"/>
<path class="fill" d="M722.80 146.17l151.50 -8.10v-3.20l-151.50 8.10"/>
<use x="726.60" y="125.67" xlink:href="#hd"/>
<path d="M723.10 125.67v19.50" class="stroke"/>
<abc type="N" row="12" col="17" x="720.10" y="119.67" width="13.00" height="31"/>
<use x="776.90" y="122.67" xlink:href="#hd"/>
<path d="M773.40 122.67v19.80" class="stroke"/>
<abc type="N" row="12" col="18" x="770.40" y="116.67" width="13.00" height="31"/>
<use x="827.20" y="119.67" xlink:href="#hd"/>
<path d="M823.70 119.67v20.20" class="stroke"/>
<abc type="N" row="12" col="19" x="820.70" y="113.67" width="13.00" height="31"/>
<use x="877.40" y="116.67" xlink:href="#hd"/>
<path d="M873.90 116.67v20.50" class="stroke"/>
<abc type="N" row="12" col="20" x="870.90" y="110.67" width="13.00" height="31"/>
<abc type="e" row="12" col="20" x="870.90" y="135.67" width="6.00" height="6"/>
<abc type="b" row="12" col="22" x="926.80" y="133.67" width="6.00" height="6"/>
<path class="fill" d="M929.40 134.17l151.50 -8.10v-3.20l-151.50 8.10"/>
<use x="933.30" y="113.67" xlink:href="#hd"/>
<path d="M929.80 113.67v19.50" class="stroke"/>
<abc type="N" row="12" col="22" x="926.80" y="107.67" width="13.00" height="32"/>
<use x="983.60" y="110.67" xlink:href="#hd"/>
<path d="M980.10 110.67v19.80" class="stroke"/>
<abc type="N" row="12" col="23" x="977.10" y="104.67" width="13.00" height="32"/>
<use x="1033.80" y="107.67" xlink:href="#hl"/>
<use x="1033.80" y="107.67" xlink:href="#hd"/>
<path d="M1030.30 107.67v20.20" class="stroke"/>
<abc type="N" row="12" col="24" x="1027.30" y="101.67" width="13.00" height="32"/>
<use x="1084.10" y="107.67" xlink:href="#hl"/>
<use x="1084.10" y="104.67" xlink:href="#hd"/>
<path d="M1080.60 104.67v20.50" class="stroke"/>
<abc type="N" row="12" col="25" x="1076.10" y="98.67" width="14.50" height="32"/>
<abc type="e" row="12" col="25" x="1076.10" y="124.67" width="6.00" height="6"/>
</g>
<g stroke-width="0.70" transform="scale(0.667)">
<circle fill="none" r="7" stroke="red" stroke-width="2" cx="308.80" cy="202.67"/><path class="stroke" stroke-width="3" d="M423.30 211.67v-24.00"/>
<path class="stroke" stroke-width="1" d="M418.80 211.67v-24.00"/>
<use x="414.80" y="211.67" xlink:href="#rdots"/>
<abc type="B" row="13" col="16" x="406.80" y="183.67" width="25.00" height="32"/>
<path d="m100.80 211.67  h324.00  M100.80 205.67  h324.00  M100.80 199.67  h324.00  M100.80 193.67  h324.00  M100.80 187.67  h324.00  " class="stroke"/>
<use x="112.80" y="205.67" xlink:href="#tclef"/>
<abc type="c" row="13" col="0" x="98.80" y="175.67" width="28.00" height="46"/>
<abc type="b" row="13" col="0" x="122.80" y="198.67" width="6.00" height="6"/>
<path class="fill" d="M133.50 199.87l122.20 0.00v-3.20l-122.20 -0.00"/>
<path class="fill" d="M133.80 194.87l121.50 0.00v-3.20l-121.50 -0.00"/>
<use x="137.30" y="181.67" xlink:href="#hl"/>
<use x="137.30" y="175.67" xlink:href="#hl"/>
<use x="137.30" y="175.67" xlink:href="#hd"/>
<path d="M133.80 175.67v23.20" class="stroke"/>
<abc type="N" row="13" col="0" x="122.80" y="169.67" width="21.00" height="35"/>
<use x="177.80" y="181.67" xlink:href="#hl"/>
<use x="177.80" y="175.67" xlink:href="#hl"/>
<use x="177.80" y="172.67" xlink:href="#hd"/>
<path d="M174.30 172.67v26.20" class="stroke"/>
<abc type="N" row="13" col="3" x="169.80" y="166.67" width="14.50" height="38"/>
<use x="218.30" y="181.67" xlink:href="#hl"/>
<use x="218.30" y="175.67" xlink:href="#hl"/>
<use x="218.30" y="169.67" xlink:href="#hl"/>
<use x="218.30" y="169.67" xlink:href="#hd"/>
<path d="M214.80 169.67v29.20" class="stroke"/>
<abc type="N" row="13" col="6" x="210.30" y="163.67" width="14.50" height="41"/>
<use x="258.80" y="181.67" xlink:href="#hl"/>
<use x="258.80" y="175.67" xlink:href="#hl"/>
<use x="258.80" y="169.67" xlink:href="#hl"/>
<use x="258.80" y="166.67" xlink:href="#hd"/>
<path d="M255.30 166.67v32.20" class="stroke"/>
<abc type="N" row="13" col="9" x="250.80" y="160.67" width="14.50" height="44"/>
<abc type="e" row="13" col="9" x="250.80" y="198.67" width="6.00" height="6"/>
<defs>
<path id="ubclef" class="fill" d="m-200 -87  c124 -35 222 -78 254 -236  43 -228 -167 -246 -192 -103  59 -80 157 22 92 78  -62 47 -115 -22 -106 -88  21 -141 270 -136 274 52  -1 175 -106 264 -322 297  m357 -250  c0 -36 51 -34 51 0  0 37 -51 36 -51 0  m-2 -129  c0 -36 51 -34 51 0  0 38 -51 37 -51 0"/>
<use id="sbclef" transform="translate(0,14.5) scale(0.037)" xlink:href="#ubclef"/>
</defs>
<use x="293.80" y="193.67" xlink:href="#sbclef"/>
<abc type="c" row="13" col="9" x="279.80" y="183.67" width="26.00" height="31"/>
<use x="308.80" y="202.67" xlink:href="#Hd"/>
<circle class="fill" cx="317.50" cy="202.67" r="1.2"/>
<path d="M312.30 202.67v-21.00" class="stroke"/>
<abc type="N" row="13" col="13" x="301.80" y="177.67" width="22.00" height="31"/>
</g>
</svg>